<svg width="25" height="25" viewBox="0 0 25 25" fill="none" xmlns="http://www.w3.org/2000/svg">
<path d="M6.92627 21.1C8.37602 21.1 9.55127 19.9248 9.55127 18.475C9.55127 17.0253 8.37602 15.85 6.92627 15.85C5.47652 15.85 4.30127 17.0253 4.30127 18.475C4.30127 19.9248 5.47652 21.1 6.92627 21.1Z" stroke="#141D26" stroke-linecap="round" stroke-linejoin="round"/>
<path d="M6.92627 9.85004C8.37602 9.85004 9.55127 8.67478 9.55127 7.22504C9.55127 5.77529 8.37602 4.60004 6.92627 4.60004C5.47652 4.60004 4.30127 5.77529 4.30127 7.22504C4.30127 8.67478 5.47652 9.85004 6.92627 9.85004Z" stroke="#141D26" stroke-linecap="round" stroke-linejoin="round"/>
<path d="M18.1765 16.6C19.6263 16.6 20.8015 15.4248 20.8015 13.975C20.8015 12.5253 19.6263 11.35 18.1765 11.35C16.7268 11.35 15.5515 12.5253 15.5515 13.975C15.5515 15.4248 16.7268 16.6 18.1765 16.6Z" stroke="black" stroke-linecap="round" stroke-linejoin="round"/>
<path d="M15.5515 14.35H12.784C12.1243 14.35 11.4727 14.205 10.8753 13.9252C10.2779 13.6454 9.74928 13.2376 9.32696 12.7309L6.92627 9.85004V15.85" stroke="black" stroke-linecap="round" stroke-linejoin="round"/>
</svg>
