<svg width="25" height="25" viewBox="0 0 25 25" fill="none" xmlns="http://www.w3.org/2000/svg">
<path d="M14.8007 20.3494V15.8493C14.8007 15.6504 14.7217 15.4596 14.5811 15.3189C14.4404 15.1783 14.2496 15.0993 14.0507 15.0993H11.0507C10.8518 15.0993 10.661 15.1783 10.5204 15.3189C10.3797 15.4596 10.3007 15.6504 10.3007 15.8493V20.3494C10.3007 20.5483 10.2217 20.739 10.0811 20.8797C9.94045 21.0203 9.74971 21.0993 9.55081 21.0994L5.05136 21.1C4.95286 21.1 4.85533 21.0806 4.76432 21.0429C4.67332 21.0052 4.59063 20.95 4.52097 20.8803C4.45132 20.8107 4.39607 20.728 4.35837 20.637C4.32067 20.546 4.30127 20.4485 4.30127 20.35V11.6818C4.30127 11.5773 4.3231 11.474 4.36537 11.3784C4.40764 11.2829 4.46941 11.1972 4.54672 11.1269L12.0462 4.308C12.1843 4.18248 12.3641 4.11292 12.5507 4.11292C12.7373 4.11291 12.9172 4.18245 13.0553 4.30797L20.5558 11.1269C20.6331 11.1972 20.6949 11.2829 20.7372 11.3784C20.7794 11.474 20.8013 11.5773 20.8013 11.6818V20.35C20.8013 20.4485 20.7819 20.546 20.7442 20.637C20.7065 20.728 20.6512 20.8107 20.5816 20.8803C20.5119 20.95 20.4292 21.0052 20.3382 21.0429C20.2472 21.0806 20.1497 21.1 20.0512 21.1L15.5506 21.0994C15.3517 21.0993 15.161 21.0203 15.0204 20.8797C14.8797 20.739 14.8007 20.5483 14.8007 20.3494V20.3494Z" stroke="black" stroke-linecap="round" stroke-linejoin="round"/>
</svg>
