<svg width="25" height="25" viewBox="0 0 25 25" fill="none" xmlns="http://www.w3.org/2000/svg">
<path d="M12.5513 21.85C17.5218 21.85 21.5513 17.8206 21.5513 12.85C21.5513 7.87947 17.5218 3.85004 12.5513 3.85004C7.58071 3.85004 3.55127 7.87947 3.55127 12.85C3.55127 17.8206 7.58071 21.85 12.5513 21.85Z" stroke="#141D26" stroke-linecap="round" stroke-linejoin="round"/>
<path d="M12.5513 18.1C15.4508 18.1 17.8013 15.7495 17.8013 12.85C17.8013 9.95054 15.4508 7.60004 12.5513 7.60004C9.65177 7.60004 7.30127 9.95054 7.30127 12.85C7.30127 15.7495 9.65177 18.1 12.5513 18.1Z" stroke="#141D26" stroke-linecap="round" stroke-linejoin="round"/>
<path d="M12.5513 7.60004V3.85004" stroke="#141D26" stroke-linecap="round" stroke-linejoin="round"/>
<path d="M8.83891 9.13773L6.18726 6.48608" stroke="#141D26" stroke-linecap="round" stroke-linejoin="round"/>
<path d="M7.30127 12.85H3.55127" stroke="#141D26" stroke-linecap="round" stroke-linejoin="round"/>
<path d="M8.83891 16.5623L6.18726 19.214" stroke="#141D26" stroke-linecap="round" stroke-linejoin="round"/>
<path d="M12.5513 18.1V21.85" stroke="#141D26" stroke-linecap="round" stroke-linejoin="round"/>
<path d="M16.2637 16.5623L18.9153 19.214" stroke="#141D26" stroke-linecap="round" stroke-linejoin="round"/>
<path d="M17.8013 12.85H21.5513" stroke="#141D26" stroke-linecap="round" stroke-linejoin="round"/>
<path d="M16.2637 9.13773L18.9153 6.48608" stroke="#141D26" stroke-linecap="round" stroke-linejoin="round"/>
</svg>
